<svg class="logo-svg" xmlns="http://www.w3.org/2000/svg" viewBox="0 0 520.43 70.35"><defs><style>.clsw-1{fill:#fff;}.clsw-1,.clsw-3{fill-rule:evenodd;}.clsw-2,.clsw-4{fill:none;stroke-linecap:round;stroke-miterlimit:10;stroke-width:0;}.clsw-2{stroke:#fff;}.clsw-3{fill:#4b4b4b;}.clsw-4{stroke:#4b4b4b;}</style></defs><g id="Negro"><g id="HATCH"><path class="clsw-1" d="M16.38,16.81,27.92,41.54h4.84L19.08,13.19H13.81L0,41.54H4.91L16.38,16.81Zm34.89-3.62H46.94V41.54h4.2V18.92L71,41.54h4V13.19H70.77V35.32L51.27,13.19Zm49.44,3.17,3.83.36,3.17,1,2.55,1.71,3,4.74.43,3.17L113.42,30l-1.15,2.8-2.07,2.37L107.58,37l-3.16,1.09-3.71.31H89.15v3.16h11.56l3.59-.24,3.41-.73,3-1.22,2.61-1.83,1.64-1.58,1.77-2.55,1-2.8.37-3.16-.19-2.25-.85-2.92-1.52-2.62-2.25-2.37-2.43-1.64-3-1.34-3.41-.73-3.77-.31c0-.06-11.56-.06-11.56-.06v3.17h11.56Zm42.56,14,8.56,11.23h5l-9.1-11.66,3.4-.72,2.85-1.7.24-.19,1.7-2.48.61-3.1-.06-.91-.85-3-2.07-2.31-4-1.88-3.64-.43h-13.6v3.16h13.05l1.94.18,3,1.28,1,1,.91,2.91-.18,1.4-1.7,2.49-1.46.91-3.46.66H132.28V41.54h4.19V30.31Zm50,8H171v3.19h22.33V38.35Zm-.37-13H171v3.19h22V25.4Zm.37-12.21H171v3.19h22.33V13.19Zm0-12.21H171V4.17h22.33V1Zm36.44,37.78,1.83-2.42.59-2.83L232.05,32l-1.3-2.66-.77-.76L227.15,27l-1.3-.47-3.37-.94-1.42-.36-3.83-.94-3-1.24-1.47-2.43.12-.76,1.83-2.37,1.36-.64,3.42-.6.47.06,3.49.42,3.07,1.06L229,19.51,231.46,17l-2-1.42-2.84-1.35-3.18-.83-3.67-.24-2,.06-3.31.71-2.78,1.36-.59.41L209.2,18l-.71,2.83.35,1.95,1.71,2.42,1.66,1.12,3.19,1.24,2.36.59,3.36.71,1.89.47,3,1.3.76.53L228,33.74l-.11.89-1.78,2.42L224,38.11l-3.72.42-1.6-.06-3.3-.65-2.9-1.3-2.48-2-2.48,2.66.3.29,2.48,1.77,2.89,1.24,3.25.77,3.66.24,3.49-.18,3.24-.83,2.42-1.35.54-.42Zm61.72-22.51,2.17.17,3.23.88,1.58.77,2.47,2,3.22-1.76-.76-.7-2.52-1.94L298,14.31l-3.11-.82-3.46-.29-3.11.23-3.29.71-2.93,1.29-4.58,3.63L276,21.53l-1,2.76-.29,3.11.23,2.7.88,2.81,1.53,2.47,2.23,2.23,2.29,1.58,2.93,1.35,3.17.76,3.52.24h1l3.4-.41,3.11-.94,2.82-1.41,2.52-2V27h-8.74V30h4.69v5.51l-.7.53-3.05,1.53-1.65.47-3.4.41-3.29-.35-3.05-1-2.64-1.76-2-2.29-1.18-2.7-.41-3c0-.06.41-3.11.41-3.11l1.18-2.64,2-2.29,2.47-1.7L288,16.6l3.46-.35Zm43.4.56,11.54,24.73h4.85L337.57,13.19H332.3L318.49,41.54h4.91l11.47-24.73Zm49.52,24.73L398,13.19h-4.81L381.71,37.7l-11.4-24.51h-4.88l13.72,28.35Zm32,0h-4.23V13h4.23V41.54Zm25.16-11.23,8.56,11.23h5L446,29.88l3.4-.72,2.85-1.7.25-.19,1.69-2.48.61-3.1-.06-.91-.85-3-2.06-2.31-4-1.88-3.64-.43h-13.6v3.16h13.05l1.95.18,3,1.28,1,1,.91,2.91-.18,1.4-1.7,2.49-1.46.91-3.46.66H430.56V41.54h4.19V30.31Zm31.94,11.23h-4.23V13h4.23V41.54Zm30.56-24.73,11.53,24.73h4.85L506.75,13.19h-5.28l-13.8,28.35h4.9l11.48-24.73Z"/></g><g id="LWPOLYLINE"><polygon class="clsw-2" points="16.38 16.81 27.92 41.54 32.76 41.54 19.08 13.19 13.8 13.19 0 41.54 4.91 41.54 16.38 16.81"/></g><g id="LWPOLYLINE-2" data-name="LWPOLYLINE"><polygon class="clsw-2" points="51.27 13.19 46.94 13.19 46.94 41.54 51.14 41.54 51.14 18.92 70.96 41.54 74.98 41.54 74.98 13.19 70.77 13.19 70.77 35.32 51.27 13.19"/></g><g id="LWPOLYLINE-3" data-name="LWPOLYLINE"><path class="clsw-2" d="M100.71,16.36l3.83.36,3.17,1,2.55,1.71,3,4.74.43,3.17L113.42,30l-1.15,2.8-2.07,2.37L107.58,37l-3.16,1.09-3.71.31H89.15v3.16h11.56l3.59-.24,3.41-.73,3-1.22,2.61-1.83,1.64-1.58,1.77-2.55,1-2.8.37-3.16-.19-2.25-.85-2.92-1.52-2.62-2.25-2.37-2.43-1.64-3-1.34-3.41-.73-3.77-.31c0-.06-11.56-.06-11.56-.06v3.17h11.56Z"/></g><g id="LWPOLYLINE-4" data-name="LWPOLYLINE"><polygon class="clsw-2" points="143.27 30.31 151.82 41.54 156.8 41.54 147.7 29.88 151.1 29.16 153.95 27.46 154.19 27.27 155.89 24.79 156.5 21.69 156.44 20.78 155.59 17.8 153.53 15.5 149.52 13.62 145.88 13.19 132.28 13.19 132.28 16.35 136.47 16.35 145.33 16.35 147.27 16.53 150.25 17.8 151.22 18.84 152.13 21.75 151.95 23.15 150.25 25.64 148.79 26.55 145.33 27.21 132.28 27.21 132.28 41.54 136.47 41.54 136.47 30.31 143.27 30.31"/></g><g id="POLYLINE"><rect class="clsw-2" x="170.98" y="25.4" width="21.97" height="3.19"/></g><g id="POLYLINE-2" data-name="POLYLINE"><rect class="clsw-2" x="170.98" y="38.35" width="22.33" height="3.19"/></g><g id="POLYLINE-3" data-name="POLYLINE"><rect class="clsw-2" x="170.98" y="13.19" width="22.33" height="3.19"/></g><g id="LWPOLYLINE-5" data-name="LWPOLYLINE"><polygon class="clsw-2" points="229.75 38.76 231.58 36.34 232.17 33.51 232.05 32.03 230.75 29.37 229.98 28.61 227.15 26.95 225.85 26.48 222.48 25.54 221.06 25.18 217.23 24.24 214.22 23 212.74 20.57 212.86 19.81 214.69 17.45 216.04 16.8 219.47 16.2 219.94 16.26 223.43 16.68 226.5 17.74 228.98 19.51 231.46 17.03 229.51 15.61 226.68 14.26 223.49 13.43 219.82 13.19 217.82 13.25 214.51 13.96 211.74 15.32 211.14 15.73 209.19 18.04 208.49 20.87 208.84 22.82 210.55 25.24 212.21 26.36 215.4 27.6 217.76 28.19 221.12 28.9 223.01 29.37 225.97 30.67 226.73 31.2 227.97 33.74 227.86 34.63 226.08 37.05 223.96 38.11 220.24 38.53 218.64 38.47 215.34 37.82 212.44 36.52 209.96 34.57 207.48 37.23 207.78 37.52 210.26 39.3 213.15 40.53 216.4 41.3 220.06 41.54 223.54 41.36 226.79 40.53 229.21 39.18 229.75 38.76"/></g><g id="LWPOLYLINE-6" data-name="LWPOLYLINE"><path class="clsw-2" d="M291.47,16.25l2.17.17,3.23.88,1.58.77,2.47,2,3.22-1.76-.76-.7-2.52-1.94L298,14.31l-3.11-.82-3.46-.29-3.11.23-3.29.71-2.93,1.29-4.58,3.63L276,21.53l-1,2.76-.29,3.11.23,2.7.88,2.81,1.53,2.47,2.23,2.23,2.29,1.58,2.93,1.35,3.17.76,3.52.24h1l3.4-.41,3.11-.94,2.82-1.41,2.52-2V27h-8.74V30h4.69v5.51l-.7.53-3.05,1.53-1.65.47-3.4.41-3.29-.35-3.05-1-2.64-1.76-2-2.29-1.18-2.7-.41-3c0-.06.41-3.11.41-3.11l1.18-2.64,2-2.29,2.47-1.7L288,16.6Z"/></g><g id="LWPOLYLINE-7" data-name="LWPOLYLINE"><polygon class="clsw-2" points="334.88 16.81 346.41 41.54 351.26 41.54 337.57 13.19 332.3 13.19 318.49 41.54 323.4 41.54 334.88 16.81"/></g><g id="LWPOLYLINE-8" data-name="LWPOLYLINE"><polygon class="clsw-2" points="384.39 41.54 397.98 13.19 393.17 13.19 381.71 37.7 370.31 13.19 365.43 13.19 379.15 41.54 384.39 41.54"/></g><g id="LWPOLYLINE-9" data-name="LWPOLYLINE"><rect class="clsw-2" x="412.16" y="13.01" width="4.23" height="28.53"/></g><g id="LWPOLYLINE-10" data-name="LWPOLYLINE"><polygon class="clsw-2" points="441.55 30.31 450.11 41.54 455.08 41.54 445.98 29.88 449.38 29.16 452.23 27.46 452.48 27.27 454.18 24.79 454.78 21.69 454.72 20.78 453.87 17.8 451.81 15.5 447.8 13.62 444.16 13.19 430.56 13.19 430.56 16.35 434.75 16.35 443.61 16.35 445.56 16.53 448.53 17.8 449.5 18.84 450.41 21.75 450.23 23.15 448.53 25.64 447.07 26.55 443.61 27.21 430.56 27.21 430.56 41.54 434.75 41.54 434.75 30.31 441.55 30.31"/></g><g id="LWPOLYLINE-11" data-name="LWPOLYLINE"><rect class="clsw-2" x="469.26" y="13.01" width="4.23" height="28.53"/></g><g id="LWPOLYLINE-12" data-name="LWPOLYLINE"><polygon class="clsw-2" points="504.05 16.81 515.58 41.54 520.43 41.54 506.75 13.19 501.47 13.19 487.67 41.54 492.57 41.54 504.05 16.81"/></g><g id="POLYLINE-4" data-name="POLYLINE"><rect class="clsw-2" x="170.98" y="0.98" width="22.33" height="3.19"/></g></g><g id="Gris"><g id="HATCH-2" data-name="HATCH"><path class="clsw-3" d="M285.67,67.57l-.38.58-.44.47-.58.44-.58.29-.73.21-.68,0-.79,0-.73-.17-.28-.1-.66-.34-.57-.43-.15-.15-.43-.53-.34-.6-.09-.22-.19-.64-.09-.65,0-.36.05-.67.15-.65.1-.31.3-.62.39-.56.17-.19.54-.46.64-.37.2-.08.69-.21.77-.11h.34l.78.07.72.18.65.3.2.11.54.45.39.54.24.63,0,.15h.64l-.17-.62-.3-.56-.32-.41-.48-.45-.65-.4-.15-.07-.64-.23-.75-.13-.73,0-.8,0-.74.14-.53.17-.67.33-.6.4-.31.28-.45.52-.36.59-.18.39-.19.63-.12.65,0,.57.05.69.12.65.17.51.3.62.4.57.29.32.55.46.63.37.4.17.7.22.75.12.62,0L283,70l.74-.17.78-.35.6-.41c.09-.07.57-.56.57-.56l.4-.57c.07-.12.33-.73.33-.73l.16-.65,0-.22H286l-.12.65-.22.55Zm8.79-6.7v.48h3.67v8.54h.64V61.35h3.69v-.48Zm16.11,6.63.19.63.31.57.43.5.61.41.15.08.63.23.75.14.73,0,.84,0,.72-.13.37-.11.69-.33.54-.44s.43-.58.43-.58l.27-.63s.14-.65.14-.65l.06-.67V60.87h-.64v5.4l0,.71-.12.62c0,.08-.3.71-.3.71l-.3.41-.55.43-.51.23-.68.17-.8.06-1,0-.69-.19-.2-.09-.62-.42-.38-.45-.31-.62-.13-.44-.1-.67V60.87h-.65v5.4l0,.67.08.56Zm21.34-1.6.68.3c.05,0,.47.51.47.51l.18.65,0,.4v.82l.05.68c0,.08.2.63.2.63h.72l-.24-.58-.06-.6v-.37l0-.72v-.16l-.14-.65s-.35-.62-.35-.62l-.57-.43-.75-.21-.23,0a7.25,7.25,0,0,1,.76-.22l.61-.35.27-.24.38-.54.2-.62,0-.37-.09-.68-.15-.4-.45-.54-.24-.18-.67-.29L332.1,61l-.74-.1-.57,0h-4.36v9h.64V65.78h3.72l.8,0,.32.07Zm14.87-4.49s2.27,5.11,2.27,5.11h-4.6l2.33-5.11Zm-.36-.54-4.2,9h.69l1.33-2.9h5l1.32,2.9h.69l-4.13-9Zm-84.12,0v9h7.09V69.4h-6.45v-4h6V65h-6V61.35h6.38v-.48Zm-86.78.54s2.27,5.11,2.27,5.11H173.2l2.32-5.11Zm-.35-.54-4.19,9h.69L173,67h5l1.31,2.9H180l-4.12-9Zm18.31,5,.68.3c.05,0,.46.51.46.51l.19.65,0,.4v.82l0,.68c0,.08.21.63.21.63h.72l-.24-.58-.06-.6v-.37l0-.72,0-.16-.13-.65s-.35-.62-.35-.62l-.58-.43s-.74-.21-.74-.21l-.23,0a7.08,7.08,0,0,1,.75-.22l.61-.35.28-.24.38-.54.19-.62,0-.37-.09-.68-.16-.4-.44-.54-.25-.18-.67-.29-.38-.11-.74-.1-.58,0H188v9h.65V65.78h3.71l.8,0,.33.07Zm-.35-4.5.25.05.71.26c.13.08.65.57.65.57A5.42,5.42,0,0,1,195,63l0,.24-.11.7-.3.55-.31.3-.6.31-.72.17-.63,0h-3.71V61.35h3.71l.78,0Zm19,7.55.5-.49.4-.55.27-.51.22-.61.13-.66,0-.68c0-.08,0-.75,0-.75l-.12-.66-.17-.52-.3-.63-.39-.56-.29-.31-.54-.46-.63-.37-.4-.18-.69-.2-.76-.13-.62,0-.8,0-.74.14-.53.17-.67.33-.6.4-.31.28-.45.52-.36.59-.18.39-.19.63-.12.65,0,.57.05.69.13.65.16.51.3.62.4.57.29.32.55.46.63.37.4.17.7.22.76.12.61,0,.8,0,.74-.15.68-.23.64-.33a14.31,14.31,0,0,1,1.82,1l.34-.39-1.63-1Zm-1.59-7.49.66.34.57.44c.14.13.57.67.57.67l.33.6.09.23.19.62.09.67,0,.34-.05.69-.14.64-.18.49-.33.62-.43.54-.31.28-1.68-1-.33.4,1.57,1-.63.33-.7.22-.76.1h-.35l-.79,0-.73-.17-.28-.1-.66-.34-.57-.43-.15-.15-.43-.53-.33-.6-.1-.22-.19-.64-.09-.65v-.36l0-.67.15-.65.1-.31.3-.62.4-.56.16-.19.54-.46.65-.37.19-.08.69-.21.77-.11h.34l.79.06.72.17.29.1Zm11.26,6,.19.63.3.57.44.5.61.41.16.08.61.23.75.14.74,0,.83,0,.73-.13.37-.11.69-.33.54-.44s.42-.58.42-.58l.27-.63s.15-.65.15-.65l.06-.67V60.87h-.64v5.4l0,.71-.11.62c0,.08-.3.71-.3.71l-.31.41-.55.43-.5.23-.68.17-.81.06-.95,0-.69-.19-.21-.09-.62-.42-.37-.45-.32-.62-.12-.44-.1-.67,0-.41v-5.4h-.64v5.4l0,.67.09.56Zm15.85,2.39v-9h.65v9Zm8.63-9v.48H250v8.54h.65V61.35h3.68v-.48Zm85.25.53.25.05.71.26a8,8,0,0,1,.66.57,7,7,0,0,1,.25.71l0,.24-.1.7-.3.55-.32.3-.6.31-.73.17-.61,0h-3.72V61.35h3.72l.77,0Z"/></g><g id="LWPOLYLINE-13" data-name="LWPOLYLINE"><polygon class="clsw-4" points="346.42 60.87 342.22 69.89 342.91 69.89 344.24 66.99 349.24 66.99 350.56 69.89 351.25 69.89 347.12 60.87 346.42 60.87"/></g><g id="LWPOLYLINE-14" data-name="LWPOLYLINE"><path class="clsw-4" d="M346.78,61.41s2.27,5.11,2.27,5.11h-4.6Z"/></g><g id="LWPOLYLINE-15" data-name="LWPOLYLINE"><path class="clsw-4" d="M331.56,61.4l.25.05.71.26a8,8,0,0,1,.66.57,7,7,0,0,1,.25.71l0,.24-.1.7-.3.55-.32.3-.6.31-.73.17-.61,0h-3.72V61.35h3.72Z"/></g><g id="LWPOLYLINE-16" data-name="LWPOLYLINE"><path class="clsw-4" d="M331.91,65.9l.68.3c.05,0,.47.51.47.51l.18.65,0,.4v.82l.05.68c0,.08.2.63.2.63h.72l-.24-.58-.06-.6v-.37l0-.72v-.16l-.14-.65s-.35-.62-.35-.62l-.57-.43-.75-.21-.23,0a7.25,7.25,0,0,1,.76-.22l.61-.35.27-.24.38-.54.2-.62,0-.37-.09-.68-.15-.4-.45-.54-.24-.18-.67-.29L332.1,61l-.74-.1-.57,0h-4.36v9h.64V65.78h3.72l.8,0Z"/></g><g id="LWPOLYLINE-17" data-name="LWPOLYLINE"><path class="clsw-4" d="M310.57,67.5l.19.63.31.57.43.5.61.41.15.08.63.23.75.14.73,0,.84,0,.72-.13.37-.11.69-.33.54-.44s.43-.58.43-.58l.27-.63s.14-.65.14-.65l.06-.67V60.87h-.64v5.4l0,.71-.12.62c0,.08-.3.71-.3.71l-.3.41-.55.43-.51.23-.68.17-.8.06-1,0-.69-.19-.2-.09-.62-.42-.38-.45-.31-.62-.13-.44-.1-.67V60.87h-.65v5.4l0,.67Z"/></g><g id="LWPOLYLINE-18" data-name="LWPOLYLINE"><polygon class="clsw-4" points="294.46 60.87 294.46 61.35 298.13 61.35 298.13 69.89 298.77 69.89 298.77 61.35 302.46 61.35 302.46 60.87 294.46 60.87"/></g><g id="LWPOLYLINE-19" data-name="LWPOLYLINE"><path class="clsw-4" d="M285.67,67.57l-.38.58-.44.47-.58.44-.58.29-.73.21-.68,0-.79,0-.73-.17-.28-.1-.66-.34-.57-.43-.15-.15-.43-.53-.34-.6-.09-.22-.19-.64-.09-.65,0-.36.05-.67.15-.65.1-.31.3-.62.39-.56.17-.19.54-.46.64-.37.2-.08.69-.21.77-.11h.34l.78.07.72.18.65.3.2.11.54.45.39.54.24.63,0,.15h.64l-.17-.62-.3-.56-.32-.41-.48-.45-.65-.4-.15-.07-.64-.23-.75-.13-.73,0-.8,0-.74.14-.53.17-.67.33-.6.4-.31.28-.45.52-.36.59-.18.39-.19.63-.12.65,0,.57.05.69.12.65.17.51.3.62.4.57.29.32.55.46.63.37.4.17.7.22.75.12.62,0L283,70l.74-.17.78-.35.6-.41c.09-.07.57-.56.57-.56l.4-.57c.07-.12.33-.73.33-.73l.16-.65,0-.22H286l-.12.65Z"/></g><g id="LWPOLYLINE-20" data-name="LWPOLYLINE"><polygon class="clsw-4" points="262.3 60.87 262.3 69.89 269.39 69.89 269.39 69.4 262.94 69.4 262.94 65.44 268.94 65.44 268.94 64.96 262.94 64.96 262.94 61.35 269.32 61.35 269.32 60.87 262.3 60.87"/></g><g id="LWPOLYLINE-21" data-name="LWPOLYLINE"><polygon class="clsw-4" points="246.31 60.87 246.31 61.35 249.99 61.35 249.99 69.89 250.63 69.89 250.63 61.35 254.31 61.35 254.31 60.87 246.31 60.87"/></g><g id="LWPOLYLINE-22" data-name="LWPOLYLINE"><rect class="clsw-4" x="237.68" y="60.87" width="0.65" height="9.01"/></g><g id="LWPOLYLINE-23" data-name="LWPOLYLINE"><path class="clsw-4" d="M221.83,67.5l.19.63.3.57.44.5.61.41.16.08.61.23.75.14.74,0,.83,0,.73-.13.37-.11.69-.33.54-.44s.42-.58.42-.58l.27-.63s.15-.65.15-.65l.06-.67V60.87h-.64v5.4l0,.71-.11.62c0,.08-.3.71-.3.71l-.31.41-.55.43-.5.23-.68.17-.81.06-.95,0-.69-.19-.21-.09-.62-.42-.37-.45-.32-.62-.12-.44-.1-.67,0-.41v-5.4h-.64v5.4l0,.67Z"/></g><g id="LWPOLYLINE-24" data-name="LWPOLYLINE"><path class="clsw-4" d="M210.57,61.46l.66.34.57.44c.14.13.57.67.57.67l.33.6.09.23.19.62.09.67,0,.34-.05.69-.14.64-.18.49-.33.62-.43.54-.31.28-1.68-1-.33.4,1.57,1-.63.33-.7.22-.76.1h-.35l-.79,0-.73-.17-.28-.1-.66-.34-.57-.43-.15-.15-.43-.53-.33-.6-.1-.22-.19-.64-.09-.65v-.36l0-.67.15-.65.1-.31.3-.62.4-.56.16-.19.54-.46.65-.37.19-.08.69-.21.77-.11h.34l.79.06.72.17Z"/></g><g id="LWPOLYLINE-25" data-name="LWPOLYLINE"><path class="clsw-4" d="M212.16,69l.5-.49.4-.55.27-.51.22-.61.13-.66,0-.68c0-.08,0-.75,0-.75l-.12-.66-.17-.52-.3-.63-.39-.56-.29-.31-.54-.46-.63-.37-.4-.18-.69-.2-.76-.13-.62,0-.8,0-.74.14-.53.17-.67.33-.6.4-.31.28-.45.52-.36.59-.18.39-.19.63-.12.65,0,.57.05.69.13.65.16.51.3.62.4.57.29.32.55.46.63.37.4.17.7.22.76.12.61,0,.8,0,.74-.15.68-.23.64-.33a14.31,14.31,0,0,1,1.82,1l.34-.39Z"/></g><g id="LWPOLYLINE-26" data-name="LWPOLYLINE"><path class="clsw-4" d="M193.13,61.4l.25.05.71.26c.13.08.65.57.65.57A5.42,5.42,0,0,1,195,63l0,.24-.11.7-.3.55-.31.3-.6.31-.72.17-.63,0h-3.71V61.35h3.71Z"/></g><g id="LWPOLYLINE-27" data-name="LWPOLYLINE"><path class="clsw-4" d="M193.48,65.9l.68.3c.05,0,.46.51.46.51l.19.65,0,.4v.82l0,.68c0,.08.21.63.21.63h.72l-.24-.58-.06-.6v-.37l0-.72,0-.16-.13-.65s-.35-.62-.35-.62l-.58-.43s-.74-.21-.74-.21l-.23,0a7.08,7.08,0,0,1,.75-.22l.61-.35.28-.24.38-.54.19-.62,0-.37-.09-.68-.16-.4-.44-.54-.25-.18-.67-.29-.38-.11-.74-.1-.58,0H188v9h.65V65.78h3.71l.8,0Z"/></g><g id="LWPOLYLINE-28" data-name="LWPOLYLINE"><polygon class="clsw-4" points="175.17 60.87 170.98 69.89 171.67 69.89 173 66.99 178 66.99 179.31 69.89 180 69.89 175.88 60.87 175.17 60.87"/></g><g id="LWPOLYLINE-29" data-name="LWPOLYLINE"><path class="clsw-4" d="M175.52,61.41s2.27,5.11,2.27,5.11H173.2Z"/></g></g></svg>