<svg class="logo-svg" xmlns="http://www.w3.org/2000/svg" viewBox="0 0 520.43 69.37"><defs><style>.clsb-1{fill:#191919;}.clsb-1,.clsb-3{fill-rule:evenodd;}.clsb-2,.clsb-4{fill:none;stroke-linecap:round;stroke-miterlimit:10;stroke-width:0;}.clsb-2{stroke:#191919;}.clsb-3{fill:#4b4b4b;}.clsb-4{stroke:#4b4b4b;}</style></defs><g id="Negro"><g id="HATCH"><path class="clsb-1" d="M16.38,15.83,27.92,40.56h4.84L19.08,12.21H13.81L0,40.56H4.91L16.38,15.83Zm34.89-3.62H46.94V40.56h4.2V17.94L71,40.56h4V12.21H70.77V34.34L51.27,12.21Zm49.44,3.16,3.83.37,3.17,1,2.55,1.71,3,4.74.43,3.16-.31,2.68-1.15,2.8-2.07,2.37L107.58,36l-3.16,1.1-3.71.3H89.15v3.17h11.56l3.59-.25,3.41-.73,3-1.21,2.61-1.83L114.94,35l1.77-2.55,1-2.8.37-3.17-.19-2.25-.85-2.92-1.52-2.61-2.25-2.37-2.43-1.65-3-1.34-3.41-.73-3.77-.3c0-.06-11.56-.06-11.56-.06v3.16h11.56Zm42.56,14,8.56,11.23h5L147.7,28.9l3.4-.73,2.85-1.7.24-.18,1.7-2.49.61-3.09-.06-.91-.85-3-2.07-2.3-4-1.89-3.64-.42h-13.6v3.16h13.05l1.94.18,3,1.27,1,1,.91,2.92L152,22.16l-1.7,2.49-1.46.91-3.46.67H132.28V40.56h4.19V29.33Zm50,8H171v3.19h22.33V37.37Zm-.37-12.95H171v3.19h22V24.42Zm.37-12.21H171V15.4h22.33V12.21Zm0-12.21H171V3.19h22.33V0Zm36.44,37.78,1.83-2.42.59-2.83-.12-1.48-1.3-2.66-.77-.77L227.15,26l-1.3-.47-3.37-.95-1.42-.35-3.83-.95-3-1.24-1.47-2.42.12-.77,1.83-2.36,1.36-.65,3.42-.59.47.06,3.49.41,3.07,1.07L229,18.53l2.48-2.48-2-1.42-2.84-1.36-3.18-.82-3.67-.24-2,.06-3.31.71-2.78,1.36-.59.41-1.94,2.3-.71,2.84.35,1.95,1.71,2.42,1.66,1.12,3.19,1.24,2.36.59,3.36.71,1.89.47,3,1.3.76.53L228,32.76l-.11.89-1.78,2.42L224,37.13l-3.72.41-1.6,0-3.3-.65-2.9-1.3L210,33.59l-2.48,2.66.3.29,2.48,1.77,2.89,1.24,3.25.77,3.66.24,3.49-.18,3.24-.83,2.42-1.36.54-.41Zm61.72-22.51,2.17.17,3.23.88,1.58.76,2.47,2,3.22-1.76-.76-.7-2.52-1.94L298,13.33l-3.11-.82-3.46-.3-3.11.24-3.29.7-2.93,1.29-4.58,3.64L276,20.55l-1,2.75-.29,3.11.23,2.7.88,2.82,1.53,2.46,2.23,2.23,2.29,1.59,2.93,1.35,3.17.76,3.52.24h1l3.4-.41,3.11-.94,2.82-1.41,2.52-2V26h-8.74v3.06h4.69v5.51l-.7.53-3.05,1.52-1.65.47-3.4.41-3.29-.35-3.05-1-2.64-1.77-2-2.28-1.18-2.7-.41-3c0-.05.41-3.11.41-3.11l1.18-2.64,2-2.28L285,16.67,288,15.62l3.46-.35Zm43.4.56,11.54,24.73h4.85L337.57,12.21H332.3L318.49,40.56h4.91l11.47-24.73Zm49.52,24.73L398,12.21h-4.81L381.71,36.72l-11.4-24.51h-4.88l13.72,28.35Zm32,0h-4.23V12h4.23V40.56Zm25.16-11.23,8.56,11.23h5L446,28.9l3.4-.73,2.85-1.7.25-.18,1.69-2.49.61-3.09-.06-.91-.85-3-2.06-2.3-4-1.89-3.64-.42h-13.6v3.16h13.05l1.95.18,3,1.27,1,1,.91,2.92-.18,1.39-1.7,2.49-1.46.91-3.46.67H430.56V40.56h4.19V29.33Zm31.94,11.23h-4.23V12h4.23V40.56Zm30.56-24.73,11.53,24.73h4.85L506.75,12.21h-5.28l-13.8,28.35h4.9l11.48-24.73Z"/></g><g id="LWPOLYLINE"><polygon class="clsb-2" points="16.38 15.83 27.92 40.56 32.76 40.56 19.08 12.21 13.8 12.21 0 40.56 4.91 40.56 16.38 15.83"/></g><g id="LWPOLYLINE-2" data-name="LWPOLYLINE"><polygon class="clsb-2" points="51.27 12.21 46.94 12.21 46.94 40.56 51.14 40.56 51.14 17.94 70.96 40.56 74.98 40.56 74.98 12.21 70.77 12.21 70.77 34.34 51.27 12.21"/></g><g id="LWPOLYLINE-3" data-name="LWPOLYLINE"><path class="clsb-2" d="M100.71,15.37l3.83.37,3.17,1,2.55,1.71,3,4.74.43,3.16-.31,2.68-1.15,2.8-2.07,2.37L107.58,36l-3.16,1.1-3.71.3H89.15v3.17h11.56l3.59-.25,3.41-.73,3-1.21,2.61-1.83L114.94,35l1.77-2.55,1-2.8.37-3.17-.19-2.25-.85-2.92-1.52-2.61-2.25-2.37-2.43-1.65-3-1.34-3.41-.73-3.77-.3c0-.06-11.56-.06-11.56-.06v3.16h11.56Z"/></g><g id="LWPOLYLINE-4" data-name="LWPOLYLINE"><polygon class="clsb-2" points="143.27 29.33 151.82 40.56 156.8 40.56 147.7 28.9 151.1 28.17 153.95 26.47 154.19 26.29 155.89 23.8 156.5 20.71 156.44 19.8 155.59 16.82 153.53 14.52 149.52 12.63 145.88 12.21 132.28 12.21 132.28 15.37 136.47 15.37 145.33 15.37 147.27 15.55 150.25 16.82 151.22 17.86 152.13 20.77 151.95 22.16 150.25 24.65 148.79 25.56 145.33 26.23 132.28 26.23 132.28 40.56 136.47 40.56 136.47 29.33 143.27 29.33"/></g><g id="POLYLINE"><rect class="clsb-2" x="170.98" y="24.42" width="21.97" height="3.19"/></g><g id="POLYLINE-2" data-name="POLYLINE"><rect class="clsb-2" x="170.98" y="37.37" width="22.33" height="3.19"/></g><g id="POLYLINE-3" data-name="POLYLINE"><rect class="clsb-2" x="170.98" y="12.21" width="22.33" height="3.19"/></g><g id="LWPOLYLINE-5" data-name="LWPOLYLINE"><polygon class="clsb-2" points="229.75 37.78 231.58 35.36 232.17 32.52 232.05 31.05 230.75 28.39 229.98 27.62 227.15 25.97 225.85 25.5 222.48 24.55 221.06 24.2 217.23 23.25 214.22 22.01 212.74 19.59 212.86 18.82 214.69 16.46 216.04 15.81 219.47 15.22 219.94 15.28 223.43 15.7 226.5 16.76 228.98 18.53 231.46 16.05 229.51 14.63 226.68 13.27 223.49 12.45 219.82 12.21 217.82 12.27 214.51 12.98 211.74 14.34 211.14 14.75 209.19 17.05 208.49 19.89 208.84 21.84 210.55 24.26 212.21 25.38 215.4 26.62 217.76 27.21 221.12 27.92 223.01 28.39 225.97 29.69 226.73 30.22 227.97 32.76 227.86 33.65 226.08 36.07 223.96 37.13 220.24 37.55 218.64 37.49 215.34 36.84 212.44 35.54 209.96 33.59 207.48 36.24 207.78 36.54 210.26 38.31 213.15 39.55 216.4 40.32 220.06 40.56 223.54 40.38 226.79 39.55 229.21 38.19 229.75 37.78"/></g><g id="LWPOLYLINE-6" data-name="LWPOLYLINE"><path class="clsb-2" d="M291.47,15.27l2.17.17,3.23.88,1.58.76,2.47,2,3.22-1.76-.76-.7-2.52-1.94L298,13.33l-3.11-.82-3.46-.3-3.11.24-3.29.7-2.93,1.29-4.58,3.64L276,20.55l-1,2.75-.29,3.11.23,2.7.88,2.82,1.53,2.46,2.23,2.23,2.29,1.59,2.93,1.35,3.17.76,3.52.24h1l3.4-.41,3.11-.94,2.82-1.41,2.52-2V26h-8.74v3.06h4.69v5.51l-.7.53-3.05,1.52-1.65.47-3.4.41-3.29-.35-3.05-1-2.64-1.77-2-2.28-1.18-2.7-.41-3c0-.05.41-3.11.41-3.11l1.18-2.64,2-2.28L285,16.67,288,15.62Z"/></g><g id="LWPOLYLINE-7" data-name="LWPOLYLINE"><polygon class="clsb-2" points="334.88 15.83 346.41 40.56 351.26 40.56 337.57 12.21 332.3 12.21 318.49 40.56 323.4 40.56 334.88 15.83"/></g><g id="LWPOLYLINE-8" data-name="LWPOLYLINE"><polygon class="clsb-2" points="384.39 40.56 397.98 12.21 393.17 12.21 381.71 36.72 370.31 12.21 365.43 12.21 379.15 40.56 384.39 40.56"/></g><g id="LWPOLYLINE-9" data-name="LWPOLYLINE"><rect class="clsb-2" x="412.16" y="12.03" width="4.23" height="28.53"/></g><g id="LWPOLYLINE-10" data-name="LWPOLYLINE"><polygon class="clsb-2" points="441.55 29.33 450.11 40.56 455.08 40.56 445.98 28.9 449.38 28.17 452.23 26.47 452.48 26.29 454.18 23.8 454.78 20.71 454.72 19.8 453.87 16.82 451.81 14.52 447.8 12.63 444.16 12.21 430.56 12.21 430.56 15.37 434.75 15.37 443.61 15.37 445.56 15.55 448.53 16.82 449.5 17.86 450.41 20.77 450.23 22.16 448.53 24.65 447.07 25.56 443.61 26.23 430.56 26.23 430.56 40.56 434.75 40.56 434.75 29.33 441.55 29.33"/></g><g id="LWPOLYLINE-11" data-name="LWPOLYLINE"><rect class="clsb-2" x="469.26" y="12.03" width="4.23" height="28.53"/></g><g id="LWPOLYLINE-12" data-name="LWPOLYLINE"><polygon class="clsb-2" points="504.05 15.83 515.58 40.56 520.43 40.56 506.75 12.21 501.47 12.21 487.67 40.56 492.57 40.56 504.05 15.83"/></g><g id="POLYLINE-4" data-name="POLYLINE"><rect class="clsb-2" x="170.98" width="22.33" height="3.19"/></g></g><g id="Gris"><g id="HATCH-2" data-name="HATCH"><path class="clsb-3" d="M285.67,66.59l-.38.58-.44.47-.58.44-.58.29-.73.21-.68,0-.79,0-.73-.17-.28-.11-.66-.33-.57-.43-.15-.15-.43-.54-.34-.6-.09-.21-.19-.64-.09-.65,0-.36.05-.67.15-.65.1-.32.3-.61.39-.57.17-.18.54-.46.64-.37.2-.08.69-.22.77-.1h.34l.78.07.72.17.65.3.2.12.54.45.39.54.24.63,0,.15h.64L286.3,62l-.3-.56-.32-.42-.48-.45-.65-.39-.15-.07-.64-.23-.75-.13-.73,0-.8,0-.74.14-.53.17-.67.33-.6.4-.31.28-.45.51-.36.59-.18.4-.19.62-.12.66,0,.57.05.68.12.66.17.51.3.62.4.56.29.33.55.46.63.37.4.16.7.23.75.12.62,0,.76-.07.74-.18c.1,0,.78-.34.78-.34l.6-.41c.09-.07.57-.57.57-.57l.4-.57c.07-.11.33-.73.33-.73l.16-.64,0-.22H286l-.12.65-.22.55Zm8.79-6.7v.48h3.67V68.9h.64V60.37h3.69v-.48Zm16.11,6.63.19.62.31.57.43.51.61.41.15.08.63.23.75.14.73,0,.84-.05.72-.13.37-.11.69-.33.54-.44s.43-.58.43-.58l.27-.64s.14-.64.14-.64l.06-.68V59.89h-.64v5.4l0,.71-.12.62c0,.07-.3.71-.3.71l-.3.41-.55.43-.51.23-.68.17-.8.06-1,0-.69-.19-.2-.1-.62-.41-.38-.46-.31-.61-.13-.44-.1-.67V59.89h-.65v5.4l0,.66.08.57Zm21.34-1.6.68.29c.05,0,.47.52.47.52l.18.65,0,.4v.82l.05.68c0,.08.2.62.2.62h.72l-.24-.57-.06-.6v-.37l0-.72v-.16l-.14-.66s-.35-.61-.35-.61l-.57-.44-.75-.2-.23,0a7.25,7.25,0,0,1,.76-.22l.61-.35.27-.24.38-.54.2-.62,0-.37-.09-.68-.15-.41-.45-.53-.24-.19-.67-.29-.39-.1-.74-.1-.57,0h-4.36v9h.64V64.79h3.72l.8.06.32.07Zm14.87-4.49s2.27,5.1,2.27,5.1h-4.6l2.33-5.1Zm-.36-.54-4.2,9h.69L344.24,66h5l1.32,2.89h.69l-4.13-9Zm-84.12,0v9h7.09v-.48h-6.45v-4h6V64h-6V60.37h6.38v-.48Zm-86.78.54s2.27,5.1,2.27,5.1H173.2l2.32-5.1Zm-.35-.54-4.19,9h.69L173,66h5l1.31,2.89H180l-4.12-9Zm18.31,5,.68.29c.05,0,.46.52.46.52l.19.65,0,.4v.82l0,.68c0,.08.21.62.21.62h.72l-.24-.57-.06-.6v-.37l0-.72,0-.16-.13-.66s-.35-.61-.35-.61l-.58-.44-.74-.2-.23,0a7.08,7.08,0,0,1,.75-.22l.61-.35.28-.24.38-.54.19-.62,0-.37-.09-.68-.16-.41-.44-.53-.25-.19-.67-.29-.38-.1-.74-.1-.58,0H188v9h.65V64.79h3.71l.8.06.33.07Zm-.35-4.5.25,0,.71.26c.13.08.65.56.65.56A6,6,0,0,1,195,62l0,.25-.11.7-.3.55-.31.3-.6.31-.72.17-.63,0h-3.71V60.37h3.71l.78.05Zm19,7.55.5-.49.4-.55.27-.52.22-.61.13-.65,0-.68c0-.08,0-.75,0-.75l-.12-.66-.17-.52-.3-.63-.39-.56-.29-.31-.54-.46-.63-.37-.4-.18-.69-.21-.76-.12-.62,0-.8,0-.74.14-.53.17-.67.33-.6.4-.31.28-.45.51-.36.59-.18.4-.19.62-.12.66,0,.57.05.68.13.66.16.51.3.62.4.56.29.33.55.46.63.37.4.16.7.23.76.12.61,0,.8-.05.74-.15.68-.23.64-.33a13.18,13.18,0,0,1,1.82,1l.34-.39-1.63-1Zm-1.59-7.49.66.34.57.44c.14.13.57.67.57.67l.33.6.09.22.19.63.09.66,0,.35-.05.68-.14.65-.18.49-.33.61-.43.55-.31.28L210,66.6l-.33.39,1.57,1-.63.32-.7.23-.76.1h-.35l-.79,0-.73-.17L207,68.3l-.66-.33-.57-.43-.15-.15-.43-.54-.33-.6-.1-.21-.19-.64-.09-.65v-.36l0-.67.15-.65.1-.32.3-.61.4-.57.16-.18.54-.46.65-.37.19-.08.69-.22.77-.1h.34l.79.06.72.17.29.1Zm11.26,6,.19.62.3.57.44.51.61.41.16.08.61.23.75.14.74,0,.83-.05.73-.13.37-.11.69-.33.54-.44s.42-.58.42-.58l.27-.64s.15-.64.15-.64l.06-.68V59.89h-.64v5.4l0,.71-.11.62c0,.07-.3.71-.3.71l-.31.41-.55.43-.5.23-.68.17-.81.06-.95,0-.69-.19-.21-.1-.62-.41-.37-.46-.32-.61-.12-.44-.1-.67,0-.41v-5.4h-.64v5.4l0,.66.09.57Zm15.85,2.38v-9h.65v9Zm8.63-9v.48H250V68.9h.65V60.37h3.68v-.48Zm85.25.53.25,0,.71.26a8.29,8.29,0,0,1,.66.56c.06.1.25.71.25.71l0,.25-.1.7-.3.55-.32.3-.6.31-.73.17-.61,0h-3.72V60.37h3.72l.77.05Z"/></g><g id="LWPOLYLINE-13" data-name="LWPOLYLINE"><polygon class="clsb-4" points="346.42 59.89 342.22 68.9 342.91 68.9 344.24 66.01 349.24 66.01 350.56 68.9 351.25 68.9 347.12 59.89 346.42 59.89"/></g><g id="LWPOLYLINE-14" data-name="LWPOLYLINE"><path class="clsb-4" d="M346.78,60.43s2.27,5.1,2.27,5.1h-4.6Z"/></g><g id="LWPOLYLINE-15" data-name="LWPOLYLINE"><path class="clsb-4" d="M331.56,60.42l.25,0,.71.26a8.29,8.29,0,0,1,.66.56c.06.1.25.71.25.71l0,.25-.1.7-.3.55-.32.3-.6.31-.73.17-.61,0h-3.72V60.37h3.72Z"/></g><g id="LWPOLYLINE-16" data-name="LWPOLYLINE"><path class="clsb-4" d="M331.91,64.92l.68.29c.05,0,.47.52.47.52l.18.65,0,.4v.82l.05.68c0,.08.2.62.2.62h.72l-.24-.57-.06-.6v-.37l0-.72v-.16l-.14-.66s-.35-.61-.35-.61l-.57-.44-.75-.2-.23,0a7.25,7.25,0,0,1,.76-.22l.61-.35.27-.24.38-.54.2-.62,0-.37-.09-.68-.15-.41-.45-.53-.24-.19-.67-.29-.39-.1-.74-.1-.57,0h-4.36v9h.64V64.79h3.72l.8.06Z"/></g><g id="LWPOLYLINE-17" data-name="LWPOLYLINE"><path class="clsb-4" d="M310.57,66.52l.19.62.31.57.43.51.61.41.15.08.63.23.75.14.73,0,.84-.05.72-.13.37-.11.69-.33.54-.44s.43-.58.43-.58l.27-.64s.14-.64.14-.64l.06-.68V59.89h-.64v5.4l0,.71-.12.62c0,.07-.3.71-.3.71l-.3.41-.55.43-.51.23-.68.17-.8.06-1,0-.69-.19-.2-.1-.62-.41-.38-.46-.31-.61-.13-.44-.1-.67V59.89h-.65v5.4l0,.66Z"/></g><g id="LWPOLYLINE-18" data-name="LWPOLYLINE"><polygon class="clsb-4" points="294.46 59.89 294.46 60.37 298.13 60.37 298.13 68.9 298.77 68.9 298.77 60.37 302.46 60.37 302.46 59.89 294.46 59.89"/></g><g id="LWPOLYLINE-19" data-name="LWPOLYLINE"><path class="clsb-4" d="M285.67,66.59l-.38.58-.44.47-.58.44-.58.29-.73.21-.68,0-.79,0-.73-.17-.28-.11-.66-.33-.57-.43-.15-.15-.43-.54-.34-.6-.09-.21-.19-.64-.09-.65,0-.36.05-.67.15-.65.1-.32.3-.61.39-.57.17-.18.54-.46.64-.37.2-.08.69-.22.77-.1h.34l.78.07.72.17.65.3.2.12.54.45.39.54.24.63,0,.15h.64L286.3,62l-.3-.56-.32-.42-.48-.45-.65-.39-.15-.07-.64-.23-.75-.13-.73,0-.8,0-.74.14-.53.17-.67.33-.6.4-.31.28-.45.51-.36.59-.18.4-.19.62-.12.66,0,.57.05.68.12.66.17.51.3.62.4.56.29.33.55.46.63.37.4.16.7.23.75.12.62,0,.76-.07.74-.18c.1,0,.78-.34.78-.34l.6-.41c.09-.07.57-.57.57-.57l.4-.57c.07-.11.33-.73.33-.73l.16-.64,0-.22H286l-.12.65Z"/></g><g id="LWPOLYLINE-20" data-name="LWPOLYLINE"><polygon class="clsb-4" points="262.3 59.89 262.3 68.9 269.39 68.9 269.39 68.42 262.94 68.42 262.94 64.46 268.94 64.46 268.94 63.98 262.94 63.98 262.94 60.37 269.32 60.37 269.32 59.89 262.3 59.89"/></g><g id="LWPOLYLINE-21" data-name="LWPOLYLINE"><polygon class="clsb-4" points="246.31 59.89 246.31 60.37 249.99 60.37 249.99 68.9 250.63 68.9 250.63 60.37 254.31 60.37 254.31 59.89 246.31 59.89"/></g><g id="LWPOLYLINE-22" data-name="LWPOLYLINE"><rect class="clsb-4" x="237.68" y="59.89" width="0.65" height="9.01"/></g><g id="LWPOLYLINE-23" data-name="LWPOLYLINE"><path class="clsb-4" d="M221.83,66.52l.19.62.3.57.44.51.61.41.16.08.61.23.75.14.74,0,.83-.05.73-.13.37-.11.69-.33.54-.44s.42-.58.42-.58l.27-.64s.15-.64.15-.64l.06-.68V59.89h-.64v5.4l0,.71-.11.62c0,.07-.3.71-.3.71l-.31.41-.55.43-.5.23-.68.17-.81.06-.95,0-.69-.19-.21-.1-.62-.41-.37-.46-.32-.61-.12-.44-.1-.67,0-.41v-5.4h-.64v5.4l0,.66Z"/></g><g id="LWPOLYLINE-24" data-name="LWPOLYLINE"><path class="clsb-4" d="M210.57,60.48l.66.34.57.44c.14.13.57.67.57.67l.33.6.09.22.19.63.09.66,0,.35-.05.68-.14.65-.18.49-.33.61-.43.55-.31.28L210,66.6l-.33.39,1.57,1-.63.32-.7.23-.76.1h-.35l-.79,0-.73-.17L207,68.3l-.66-.33-.57-.43-.15-.15-.43-.54-.33-.6-.1-.21-.19-.64-.09-.65v-.36l0-.67.15-.65.1-.32.3-.61.4-.57.16-.18.54-.46.65-.37.19-.08.69-.22.77-.1h.34l.79.06.72.17Z"/></g><g id="LWPOLYLINE-25" data-name="LWPOLYLINE"><path class="clsb-4" d="M212.16,68l.5-.49.4-.55.27-.52.22-.61.13-.65,0-.68c0-.08,0-.75,0-.75l-.12-.66-.17-.52-.3-.63-.39-.56-.29-.31-.54-.46-.63-.37-.4-.18-.69-.21-.76-.12-.62,0-.8,0-.74.14-.53.17-.67.33-.6.4-.31.28-.45.51-.36.59-.18.4-.19.62-.12.66,0,.57.05.68.13.66.16.51.3.62.4.56.29.33.55.46.63.37.4.16.7.23.76.12.61,0,.8-.05.74-.15.68-.23.64-.33a13.18,13.18,0,0,1,1.82,1l.34-.39Z"/></g><g id="LWPOLYLINE-26" data-name="LWPOLYLINE"><path class="clsb-4" d="M193.13,60.42l.25,0,.71.26c.13.08.65.56.65.56A6,6,0,0,1,195,62l0,.25-.11.7-.3.55-.31.3-.6.31-.72.17-.63,0h-3.71V60.37h3.71Z"/></g><g id="LWPOLYLINE-27" data-name="LWPOLYLINE"><path class="clsb-4" d="M193.48,64.92l.68.29c.05,0,.46.52.46.52l.19.65,0,.4v.82l0,.68c0,.08.21.62.21.62h.72l-.24-.57-.06-.6v-.37l0-.72,0-.16-.13-.66s-.35-.61-.35-.61l-.58-.44-.74-.2-.23,0a7.08,7.08,0,0,1,.75-.22l.61-.35.28-.24.38-.54.19-.62,0-.37-.09-.68-.16-.41-.44-.53-.25-.19-.67-.29-.38-.1-.74-.1-.58,0H188v9h.65V64.79h3.71l.8.06Z"/></g><g id="LWPOLYLINE-28" data-name="LWPOLYLINE"><polygon class="clsb-4" points="175.17 59.89 170.98 68.9 171.67 68.9 173 66.01 178 66.01 179.31 68.9 180 68.9 175.88 59.89 175.17 59.89"/></g><g id="LWPOLYLINE-29" data-name="LWPOLYLINE"><path class="clsb-4" d="M175.52,60.43s2.27,5.1,2.27,5.1H173.2Z"/></g></g></svg>