<svg xmlns="http://www.w3.org/2000/svg" viewBox="0 0 416.73 294.8"><defs><style>.cls-1{fill:#191919;}.cls-1,.cls-2{fill-rule:evenodd;}.cls-2{fill:#4b4b4b;}.cls-3{fill:none;stroke:#4b4b4b;stroke-linecap:round;stroke-linejoin:round;stroke-width:0.71px;}</style></defs><g id="Negro"><g id="HATCH"><path class="cls-1" d="M221.55,170.4a53,53,0,0,0,4.75,7.36,58.78,58.78,0,0,0,19.44,16.17,66.56,66.56,0,0,0,25.52,7.27A68.18,68.18,0,0,0,297.85,198a62.36,62.36,0,0,0,22.39-12.94c1.19-1.09,2.33-2.23,3.42-3.4V169.44H297.42v-22.2h48.44v42.32A79.43,79.43,0,0,1,330,205.84,86.78,86.78,0,0,1,293.73,222a90.73,90.73,0,0,1-40-1.33,85.34,85.34,0,0,1-35-18.56,77.87,77.87,0,0,1-15.08-18.23L159.33,90.41l-62,133.53H70.87L145.41,70.87h28.5Z"/></g></g><g id="Gris"><g id="HATCH-2" data-name="HATCH"><path class="cls-2" d="M326.84,116.54a57.5,57.5,0,0,0-12.29-11.69A63.7,63.7,0,0,0,295,95.6,68.59,68.59,0,0,0,273,93.17a67.3,67.3,0,0,0-26.84,7.17,59.41,59.41,0,0,0-20.28,17,51.35,51.35,0,0,0-3,4.44L212,99.12a82.22,82.22,0,0,1,22.37-17.69,89.75,89.75,0,0,1,77.82-3.22,82.2,82.2,0,0,1,31.35,23.71c.79,1,1.55,2,2.28,3Z"/></g><g id="SPLINE"><path class="cls-3" d="M326.84,116.54a57.5,57.5,0,0,0-12.29-11.69A63.7,63.7,0,0,0,295,95.6,68.59,68.59,0,0,0,273,93.17a67.3,67.3,0,0,0-26.84,7.17,59.41,59.41,0,0,0-20.28,17,51.35,51.35,0,0,0-3,4.44L212,99.12a82.22,82.22,0,0,1,22.37-17.69,89.75,89.75,0,0,1,77.82-3.22,82.2,82.2,0,0,1,31.35,23.71c.79,1,1.55,2,2.28,3Z"/></g></g></svg>